<svg id="svg3391" xmlns="http://www.w3.org/2000/svg" viewBox="0 0 1282.85 284.55"><defs><style>.cls-1{fill:#fff;}.cls-2{fill:#01a8e0;}</style></defs><title>Amazon_Echo_logo</title><path id="path8" class="cls-1" d="M468.08,235.43c-43.85,32-107.41,49.12-162.14,49.12-76.73,0-145.81-28.12-198.07-74.89-4.11-3.68-.43-8.69,4.5-5.83,56.4,32.52,126.13,52.08,198.17,52.08a397.19,397.19,0,0,0,151.16-30.63c7.42-3.12,13.63,4.82,6.37,10.16"/><path id="path10" class="cls-1" d="M486.31,214.76c-5.58-7.1-37.05-3.35-51.18-1.69-4.3.52-5-3.19-1.08-5.86,25.06-17.48,66.19-12.43,71-6.57s-1.25,46.74-24.8,66.24c-3.61,3-7.06,1.4-5.45-2.57,5.29-13.08,17.15-42.41,11.53-49.54"/><path id="path12" class="cls-1" d="M436.12,83.82v-17a4.21,4.21,0,0,1,4.34-4.3h76.76a4.26,4.26,0,0,1,4.43,4.3V81.38c0,2.44-2.1,5.63-5.78,10.68l-39.78,56.28c14.78-.36,30.38,1.82,43.79,9.31a7.73,7.73,0,0,1,4.07,6.61v18.13c0,2.47-2.76,5.37-5.65,3.87-23.62-12.27-55-13.61-81.1.13-2.66,1.43-5.45-1.43-5.45-3.91V165.26c0-2.77,0-7.49,2.82-11.69l46.09-65.49H440.55a4.23,4.23,0,0,1-4.43-4.26"/><path id="path14" class="cls-1" d="M156.09,189.83H132.74a4.39,4.39,0,0,1-4.17-3.94V67.12a4.37,4.37,0,0,1,4.5-4.26h21.78a4.38,4.38,0,0,1,4.24,4V82.36h.43c5.68-15,16.36-22,30.75-22,14.62,0,23.75,7,30.32,22,5.65-15,18.49-22,32.26-22,9.79,0,20.5,4,27,13,7.39,10,5.88,24.51,5.88,37.24l0,75a4.39,4.39,0,0,1-4.5,4.3H257.89a4.42,4.42,0,0,1-4.2-4.3V122.59c0-5,.46-17.51-.66-22.26-1.74-8-7-10.22-13.73-10.22a15.51,15.51,0,0,0-14,9.73c-2.4,6-2.17,16-2.17,22.75v62.95a4.39,4.39,0,0,1-4.5,4.3H195.35a4.39,4.39,0,0,1-4.2-4.3l0-62.95c0-13.25,2.2-32.74-14.39-32.74-16.79,0-16.13,19-16.13,32.74v62.95a4.39,4.39,0,0,1-4.5,4.3"/><path id="path16" class="cls-1" d="M587.74,60.35c34.65,0,53.41,29.49,53.41,67,0,36.23-20.73,65-53.41,65-34,0-52.56-29.49-52.56-66.24,0-37,18.76-65.72,52.56-65.72m.2,24.25c-17.21,0-18.3,23.24-18.3,37.72s-.23,45.5,18.1,45.5c18.1,0,19-25,19-40.23,0-10-.43-22-3.48-31.51-2.63-8.27-7.85-11.49-15.27-11.49"/><path id="path18" class="cls-1" d="M686.09,189.83H662.83a4.42,4.42,0,0,1-4.2-4.3l0-118.8a4.4,4.4,0,0,1,4.5-3.87h21.65a4.46,4.46,0,0,1,4.17,3.32V84.34h.43c6.54-16.24,15.7-24,31.83-24,10.48,0,20.69,3.74,27.26,14,6.11,9.5,6.11,25.49,6.11,37v74.76a4.47,4.47,0,0,1-4.5,3.74H726.62a4.41,4.41,0,0,1-4.14-3.74V121.58c0-13,1.51-32-14.62-32-5.68,0-10.91,3.78-13.5,9.5-3.28,7.26-3.71,14.48-3.71,22.49v64a4.47,4.47,0,0,1-4.57,4.3"/><path id="text3437" class="cls-2" d="M1037.49,0V189.33h23.85V97.61c11.11-9.63,23.58-17.11,36.59-17.11,17.62,0,22.22,13.91,22.22,31.82v77H1144V104.56c0-33.16-19-44.93-39-44.93-16.53,0-30.9,7.75-43.63,18.45V0ZM858.76,59.63c-32.79,0-54.2,27-54.2,65.52,0,36.1,19.51,66.86,62.06,66.86,14.63,0,30.08-4,42-11.5l-7.32-16.31c-8.94,4.81-19.51,8.56-32,8.56-25.2,0-40.11-17.65-40.38-41.45H911.6v-5.88C911.6,85,892.36,59.63,858.76,59.63Zm128.8,0c-39,0-65,30-65,67.66,0,35.83,22,64.72,62.06,64.72,16.26,0,31.44-5.35,40.92-11.77l-7-16.58c-8.4,4.55-17.62,8.83-30.62,8.83-24.66,0-40.65-16.85-40.65-46.53,0-26.74,16-46.8,42.28-46.8a54.63,54.63,0,0,1,30.9,9.09V67.66C1012.76,63.38,1001.38,59.63,987.56,59.63Zm234.52,0c-36.86,0-61,28.88-61,66.32,0,37.17,24.12,66.05,60.71,66.05,36.86,0,61-28.88,61-66.05C1282.78,88.52,1258.39,59.63,1222.08,59.63ZM858.76,78.35c19.24,0,27.92,17.65,28.19,35.3h-58C829.22,94.4,840.33,78.35,858.76,78.35Zm363.32.8c22.49,0,36,19.52,36,46.8,0,27-13.55,46.53-36.32,46.53-22.49,0-36-19.52-36-46.53C1185.76,98.68,1199.31,79.16,1222.08,79.16Z"/><path class="cls-1" d="M68.88,109.33c1.92-20.56-5.89-29.79-21-25.14-4.76,1.47-9.68,6.06-12.1,10.54-2.72,5-5.18,7.3-10.72,6a41.62,41.62,0,0,0-6-.59C2.87,98.81,1,95.28,9,81,14.9,70.48,24,63.1,35.62,61.32c12-1.85,24.75-2.88,36.68-1,20,3.06,29.35,15.42,29.87,35.7.39,15.09-.66,30.25.47,45.27.62,8.3,3.54,16.77,7.08,24.4,2.42,5.21,3.15,8.5-1.83,11.81a19.51,19.51,0,0,0-1.52,1.32C88.48,193.59,92,197.49,75.7,178.13,64.61,182.78,54.43,189,43.43,191.24c-19.86,4-34.92-4.83-40.74-21-6.53-18.16-.74-40,15.78-48.45,11.87-6.07,25.93-7.92,39.09-11.36C61,109.51,64.78,109.69,68.88,109.33ZM71,126.16c-10.76,2.71-19.12,3.59-26.33,6.95-9.4,4.39-11.09,13.46-9.46,23.15,1.21,7.17,5.45,11.67,12.65,12,9.69.47,16-5.47,18.57-13.94C68.86,146.32,69.23,137.67,71,126.16Z"/><path class="cls-1" d="M375,109.33c1.92-20.56-5.89-29.79-21-25.14-4.76,1.47-9.68,6.06-12.1,10.54-2.72,5-5.18,7.3-10.72,6a41.62,41.62,0,0,0-6-.59C309,98.81,307.08,95.28,315.08,81c5.92-10.54,15-17.92,26.63-19.71,12-1.85,24.75-2.88,36.68-1,20,3.06,29.35,15.42,29.87,35.7.39,15.09-.66,30.25.47,45.27.62,8.3,3.54,16.77,7.08,24.4,2.42,5.21,3.15,8.5-1.83,11.81a19.51,19.51,0,0,0-1.52,1.32c-17.89,14.82-14.36,18.72-30.67-.64-11.08,4.65-21.27,10.92-32.27,13.12-19.86,4-34.92-4.83-40.74-21-6.53-18.16-.74-40,15.78-48.45,11.87-6.07,25.93-7.92,39.09-11.36C367.12,109.51,370.87,109.69,375,109.33Zm2.12,16.83c-10.76,2.71-19.12,3.59-26.33,6.95-9.4,4.39-11.09,13.46-9.46,23.15,1.21,7.17,5.45,11.67,12.65,12,9.69.47,16-5.47,18.57-13.94C375,146.32,375.32,137.67,377.08,126.16Z"/></svg>