<svg id="Layer_1" data-name="Layer 1" xmlns="http://www.w3.org/2000/svg" xmlns:xlink="http://www.w3.org/1999/xlink" viewBox="0 0 100 100"><defs><style>.cls-1{fill:none;}.cls-2{clip-path:url(#clip-path);}.cls-3{fill:#bbf0f9;}.cls-4{clip-path:url(#clip-path-2);}.cls-5{fill:#7dc6d1;}</style><clipPath id="clip-path"><rect class="cls-1" x="39.42" y="84.96" width="26.71" height="5.78"/></clipPath><clipPath id="clip-path-2"><rect class="cls-1" x="39.69" y="68.71" width="26.16" height="16.25"/></clipPath></defs><title>Artboard 4</title><g class="cls-2"><path class="cls-3" d="M39.46,85.24V34.79c0-3.24,5.84-5.86,13.06-5.86s13.06,2.62,13.06,5.86L66,85.24,65.81,85c0,3.24-5.84,5.86-13.06,5.86S39.69,88.25,39.69,85"/></g><g class="cls-4"><path class="cls-3" d="M39.74,124.89V74.45c0-3.24,5.84-5.86,13.06-5.86s13.06,2.62,13.06,5.86l.45,50.45-.23-.23c0,3.24-5.84,5.86-13.06,5.86S40,127.9,40,124.67"/></g><path class="cls-5" d="M50.32,79.72c-7.75,0-16-2.41-16-6.88S42.57,66,50.32,66s16,2.41,16,6.88S58.08,79.72,50.32,79.72Zm0-11.55c-8.54,0-13.79,2.72-13.79,4.68s5.24,4.68,13.79,4.68,13.79-2.72,13.79-4.68S58.87,68.16,50.32,68.16Z"/><path class="cls-5" d="M50.32,93.22c-7.75,0-16-2.41-16-6.88h2.2c0,2,5.24,4.68,13.79,4.68s13.79-2.72,13.79-4.68h2.2C66.31,90.81,58.08,93.22,50.32,93.22Z"/><rect class="cls-5" x="34.32" y="72.84" width="2.22" height="13.5"/><rect class="cls-5" x="64.15" y="72.84" width="2.22" height="13.5"/></svg>