<svg id="Layer_1" data-name="Layer 1" xmlns="http://www.w3.org/2000/svg" viewBox="0 0 100 100"><defs><style>.cls-1{fill:#b3b3b3;}.cls-2{fill:gray;}.cls-3{fill:#fff;}</style></defs><title>Artboard 6</title><polygon class="cls-1" points="32.61 91.09 20.22 27.2 73.37 26.65 86.59 86.96 32.61 91.09"/><path class="cls-2" d="M20.22,29.13a1.1,1.1,0,0,1,0-2.2l53.15-.55h0a1.1,1.1,0,0,1,0,2.2l-53.15.55Z"/><path class="cls-2" d="M32.61,93a1.1,1.1,0,0,1-1.08-.89L19.14,28.24a1.1,1.1,0,1,1,2.16-.42L33.69,91.71A1.1,1.1,0,0,1,32.82,93Z"/><path class="cls-2" d="M32.61,93a1.1,1.1,0,0,1-.08-2.2l54-4.13a1.1,1.1,0,0,1,.17,2.2L32.7,93Z"/><path class="cls-2" d="M86.59,88.89A1.1,1.1,0,0,1,85.51,88L72.29,27.72a1.1,1.1,0,1,1,2.15-.47L87.66,87.55a1.1,1.1,0,0,1-.84,1.31Z"/><polygon class="cls-3" points="31.51 66.31 77.78 63.83 71.17 33.26 25.18 34.09 31.51 66.31"/><rect class="cls-2" x="28.45" y="67.41" width="53.77" height="2.2" transform="translate(-3.44 2.93) rotate(-2.94)"/><path class="cls-2" d="M18,32.16a1.1,1.1,0,0,1-.89-1.75l2.2-3a1.1,1.1,0,1,1,1.78,1.3l-2.2,3A1.1,1.1,0,0,1,18,32.16Z"/><path class="cls-2" d="M24.62,89.44a1.1,1.1,0,0,1-1.09-1L16.92,31.19a1.1,1.1,0,1,1,2.19-.25l6.61,57.28a1.1,1.1,0,0,1-1,1.22Z"/><path class="cls-2" d="M32.61,93a1.1,1.1,0,0,1-.45-.1l-8-3.58a1.1,1.1,0,1,1,.9-2l8,3.58A1.1,1.1,0,0,1,32.61,93Z"/></svg>