<svg id="Layer_1" data-name="Layer 1" xmlns="http://www.w3.org/2000/svg" viewBox="0 0 100 100"><defs><style>.cls-1{fill:#b3b3b3;}.cls-2{fill:gray;}</style></defs><title>Artboard 5</title><path class="cls-1" d="M39,85.49V35c0-3.24,5.84-5.86,13.06-5.86S65.1,31.8,65.1,35l.45,50.45-.23-.23c0,3.24-5.84,5.86-13.06,5.86S39.2,88.5,39.2,85.26"/><path class="cls-1" d="M39,66.48V16c0-3.24,5.84-5.86,13.06-5.86S65.1,12.8,65.1,16l.45,50.45-.23-.23c0,3.24-5.84,5.86-13.06,5.86S39.2,69.5,39.2,66.26"/><path class="cls-2" d="M49.57,20.76c-7.75,0-16-2.41-16-6.88S41.82,7,49.57,7s16,2.41,16,6.88S57.32,20.76,49.57,20.76Zm0-11.55c-8.54,0-13.79,2.72-13.79,4.68S41,18.55,49.57,18.55s13.79-2.72,13.79-4.68S58.11,9.2,49.57,9.2Z"/><path class="cls-2" d="M49.56,49.49c-7.77,0-16-2.39-16-6.81h2.07c0,2.24,6,4.74,14,4.74s14-2.5,14-4.74h2.07C65.58,47.11,57.33,49.49,49.56,49.49Z"/><path class="cls-2" d="M49.56,87.77c-7.77,0-16-2.39-16-6.81h2.07c0,2.24,6,4.74,14,4.74s14-2.5,14-4.74h2.07C65.58,85.38,57.33,87.77,49.56,87.77Z"/><path class="cls-2" d="M49.57,93.2c-7.75,0-16-2.41-16-6.88h2.2c0,2,5.24,4.68,13.79,4.68s13.79-2.72,13.79-4.68h2.2C65.56,90.79,57.32,93.2,49.57,93.2Z"/><rect class="cls-2" x="33.57" y="13.61" width="2.22" height="72.71"/><rect class="cls-2" x="63.4" y="13.33" width="2.22" height="72.98"/></svg>