<svg id="Layer_1" data-name="Layer 1" xmlns="http://www.w3.org/2000/svg" viewBox="0 0 100 100"><defs><style>.cls-1{fill:#b3b3b3;}.cls-2{fill:gray;}</style></defs><title>Artboard 3</title><path class="cls-1" d="M36.88,86V35.54c0-3.24,5.84-5.86,13.06-5.86S63,32.3,63,35.54L63.45,86l-.23-.23c0,3.24-5.84,5.86-13.06,5.86S37.1,89,37.1,85.76"/><path class="cls-2" d="M47.47,40.81c-7.75,0-16-2.41-16-6.88s8.24-6.88,16-6.88,16,2.41,16,6.88S55.22,40.81,47.47,40.81Zm0-11.55c-8.54,0-13.79,2.72-13.79,4.68s5.24,4.68,13.79,4.68,13.79-2.72,13.79-4.68S56,29.26,47.47,29.26Z"/><path class="cls-2" d="M47.46,47c-7.77,0-16-2.39-16-6.81H33.5c0,2.24,6,4.74,14,4.74s14-2.5,14-4.74h2.07C63.48,44.58,55.23,47,47.46,47Z"/><path class="cls-2" d="M47.47,93.7c-7.75,0-16-2.41-16-6.88h2.2c0,2,5.24,4.68,13.79,4.68s13.79-2.72,13.79-4.68h2.2C63.46,91.29,55.22,93.7,47.47,93.7Z"/><rect class="cls-2" x="31.47" y="33.93" width="2.22" height="52.89"/><rect class="cls-2" x="61.3" y="33.93" width="2.22" height="52.89"/></svg>