<?xml version="1.0" encoding="UTF-8" ?>
<!DOCTYPE svg PUBLIC "-//W3C//DTD SVG 1.1//EN" "http://www.w3.org/Graphics/SVG/1.1/DTD/svg11.dtd">
<svg width="1000pt" height="213pt" viewBox="0 0 1000 213" version="1.1" xmlns="http://www.w3.org/2000/svg">
<path fill="#00a0ee" opacity="1.00" d=" M 550.19 18.97 C 549.88 13.05 554.99 7.48 560.90 7.25 C 565.31 7.11 569.71 7.24 574.12 7.26 C 574.15 59.17 574.10 111.09 574.15 163.00 C 574.09 164.43 573.99 165.86 573.82 167.29 C 565.95 167.17 558.08 167.26 550.21 167.23 C 550.17 163.81 550.16 160.38 550.17 156.95 C 540.28 164.45 528.53 169.78 516.07 170.81 C 498.20 172.75 479.63 166.79 466.38 154.62 C 452.76 142.48 444.56 124.29 445.13 105.99 C 444.89 92.33 449.63 78.74 457.76 67.81 C 468.59 53.21 485.80 43.39 504.00 42.10 C 520.50 40.47 537.18 45.93 550.17 56.06 C 550.20 43.70 550.15 31.33 550.19 18.97 M 500.50 67.82 C 485.01 71.89 472.84 86.00 471.21 101.95 C 469.78 113.54 473.88 125.68 482.01 134.07 C 489.85 142.46 501.49 147.20 512.97 146.55 C 524.58 145.96 535.82 140.02 542.76 130.69 C 547.84 123.92 550.91 115.55 550.86 107.04 C 551.27 93.41 543.88 79.94 532.37 72.71 C 523.06 66.71 511.17 64.75 500.50 67.82 Z" />
<path fill="#00a0ee" opacity="1.00" d=" M 965.45 7.62 C 970.97 6.55 976.92 7.28 981.79 10.20 C 988.74 14.13 993.13 22.08 992.85 30.05 C 992.91 36.28 990.14 42.43 985.50 46.57 C 979.39 52.34 969.92 53.97 962.14 50.92 C 953.31 47.66 947.23 38.38 947.67 28.98 C 947.86 18.91 955.53 9.58 965.45 7.62 M 965.39 10.70 C 955.38 13.01 948.58 24.08 951.12 34.05 C 953.07 43.34 962.44 50.38 971.93 49.41 C 979.27 48.82 985.97 43.76 988.59 36.89 C 991.46 29.80 989.64 21.09 984.11 15.79 C 979.36 10.92 971.95 8.98 965.39 10.70 Z" />
<path fill="#00a0ee" opacity="1.00" d=" M 961.66 16.72 C 966.05 16.94 970.54 16.22 974.87 17.17 C 979.80 18.43 981.86 24.98 979.08 29.08 C 977.97 31.04 975.77 31.84 973.89 32.82 C 976.17 36.10 978.43 39.41 980.66 42.74 C 979.22 42.72 977.79 42.71 976.38 42.69 C 974.14 39.49 972.24 36.05 969.88 32.94 C 968.44 32.30 966.72 32.72 965.20 32.57 C 965.17 35.93 965.15 39.28 965.19 42.63 C 964.30 42.66 962.52 42.72 961.63 42.75 C 961.65 34.07 961.60 25.40 961.66 16.72 M 965.24 19.76 C 965.16 22.99 965.14 26.22 965.18 29.45 C 968.83 29.07 973.72 30.84 976.16 27.13 C 978.18 24.30 975.75 20.08 972.44 19.84 C 970.04 19.65 967.63 19.77 965.24 19.76 Z" />
<path fill="#00a0ee" opacity="1.00" d=" M 30.95 56.12 C 43.56 46.14 59.79 40.74 75.90 42.00 C 92.56 42.92 108.64 50.86 119.69 63.33 C 128.78 73.45 134.62 86.53 135.79 100.11 C 137.64 117.17 132.21 134.88 121.14 148.00 C 110.27 161.09 94.04 169.70 77.03 170.90 C 60.58 172.48 43.84 167.12 30.95 156.87 C 30.94 169.26 30.96 181.65 30.95 194.03 C 31.21 199.73 26.56 205.08 20.92 205.71 C 16.35 205.94 11.76 205.71 7.17 205.78 C 7.24 152.45 7.17 99.12 7.21 45.80 C 15.11 45.72 23.00 45.80 30.90 45.75 C 30.95 49.21 30.97 52.66 30.95 56.12 M 62.24 67.21 C 52.56 69.23 43.68 74.90 37.89 82.94 C 30.81 92.56 28.34 105.49 31.63 117.00 C 34.53 127.97 42.39 137.47 52.58 142.43 C 61.73 147.06 72.73 147.92 82.46 144.62 C 95.16 140.65 105.28 129.83 108.78 117.04 C 113.06 102.16 107.51 85.24 95.53 75.54 C 86.43 67.97 73.84 64.72 62.24 67.21 Z" />
<path fill="#00a0ee" opacity="1.00" d=" M 169.27 61.32 C 180.38 49.79 195.96 42.64 211.97 41.95 C 227.72 40.93 243.51 46.25 255.89 55.94 C 255.85 52.53 255.69 49.11 256.14 45.72 C 264.03 45.85 271.92 45.69 279.81 45.81 C 279.78 86.29 279.86 126.76 279.77 167.24 C 271.98 167.29 264.18 167.09 256.39 167.35 C 255.41 163.99 256.05 160.46 255.74 157.02 C 243.27 167.13 226.91 172.22 210.91 170.98 C 195.04 170.06 179.72 162.74 168.82 151.21 C 158.13 140.22 151.81 125.25 150.97 109.97 C 149.97 92.17 156.68 74.00 169.27 61.32 M 208.32 67.34 C 189.13 71.24 174.83 90.71 177.00 110.20 C 178.06 121.23 183.84 131.65 192.66 138.36 C 202.53 145.93 216.06 148.70 228.01 144.97 C 240.58 141.39 251.00 131.23 254.91 118.76 C 260.30 102.90 254.23 84.14 240.67 74.34 C 231.56 67.53 219.45 64.74 208.32 67.34 Z" />
<path fill="#00a0ee" opacity="1.00" d=" M 356.12 42.27 C 368.94 40.80 382.22 43.17 393.61 49.28 C 414.88 60.33 428.90 83.93 427.95 107.95 C 427.89 127.72 428.01 147.48 427.88 167.24 C 419.29 167.22 410.69 167.22 402.10 167.24 C 401.97 146.83 402.12 126.42 402.02 106.02 C 402.01 91.43 392.86 77.42 379.59 71.43 C 369.56 66.67 357.43 66.69 347.39 71.41 C 336.75 76.26 328.62 86.21 325.97 97.60 C 324.54 103.63 324.97 109.86 324.92 116.00 C 324.88 133.08 324.98 150.16 324.87 167.24 C 316.28 167.23 307.69 167.22 299.10 167.25 C 298.76 147.16 299.05 127.07 298.95 106.98 C 298.90 94.16 302.58 81.34 309.73 70.67 C 320.06 55.06 337.44 44.18 356.12 42.27 Z" />
<path fill="#00a0ee" opacity="1.00" d=" M 644.54 42.74 C 657.30 40.66 670.71 42.23 682.47 47.70 C 696.50 54.13 708.03 65.78 714.35 79.86 C 721.73 96.13 721.92 115.49 714.88 131.92 C 708.39 147.27 695.71 159.89 680.30 166.25 C 670.49 170.37 659.63 171.89 649.06 170.81 C 633.10 169.40 617.91 161.51 607.33 149.54 C 597.66 138.74 591.76 124.58 591.14 110.08 C 590.09 93.90 595.53 77.41 605.99 65.01 C 615.66 53.34 629.58 45.27 644.54 42.74 M 646.57 68.89 C 631.18 72.48 618.76 86.36 617.25 102.14 C 615.06 118.28 624.65 134.87 639.38 141.58 C 648.47 145.87 659.25 146.26 668.68 142.82 C 680.24 138.62 689.48 128.59 692.69 116.71 C 694.12 111.96 694.05 106.93 693.78 102.03 C 692.43 88.87 683.58 76.91 671.62 71.40 C 663.86 67.77 654.88 66.94 646.57 68.89 Z" />
<path fill="#00a0ee" opacity="1.00" d=" M 750.90 62.93 C 764.11 48.44 784.31 42.25 803.47 42.07 C 803.45 50.74 803.50 59.41 803.44 68.09 C 792.44 67.96 780.85 70.94 772.64 78.60 C 765.40 85.28 762.25 95.35 762.24 104.99 C 762.23 125.74 762.26 146.49 762.22 167.24 C 753.62 167.25 745.02 167.16 736.42 167.30 C 736.14 146.54 736.39 125.76 736.30 105.00 C 736.24 89.93 740.52 74.22 750.90 62.93 Z" />
<path fill="#00a0ee" opacity="1.00" d=" M 820.10 67.07 C 830.33 53.63 846.06 44.44 862.85 42.40 C 880.19 39.99 898.20 45.17 911.86 56.05 C 911.85 52.63 911.85 49.20 911.87 45.78 C 919.86 45.75 927.85 45.78 935.84 45.76 C 935.90 86.25 935.89 126.74 935.84 167.23 C 927.85 167.22 919.87 167.24 911.88 167.22 C 911.86 163.79 911.84 160.36 911.85 156.93 C 899.30 166.91 883.09 172.22 867.06 171.00 C 854.20 170.30 841.66 165.43 831.54 157.49 C 818.12 147.04 809.02 131.07 807.24 114.11 C 805.14 97.55 809.88 80.26 820.10 67.07 M 864.25 67.32 C 847.53 70.78 834.13 85.96 832.89 103.01 C 831.65 115.53 836.94 128.38 846.41 136.62 C 855.94 145.11 869.72 148.66 882.12 145.45 C 891.95 143.05 900.76 136.78 906.24 128.27 C 912.03 119.43 914.10 108.23 911.75 97.92 C 909.36 86.68 901.80 76.70 891.69 71.27 C 883.41 66.72 873.47 65.22 864.25 67.32 Z" />
</svg>
